<svg width="725" height="970" viewBox="0 0 725 970" fill="none" xmlns="http://www.w3.org/2000/svg">
<g filter="url(#filter0_d_2_69)">
<path d="M674.346 767.869V920H121.221V767.869H674.346ZM661.562 50.6818V203.665H140.823V50.6818H661.562ZM510.71 480.653V489.602L197.925 920H50.9084V830.511L314.687 485.341L50.9084 141.023V50.6818H197.925L510.71 480.653Z" fill="url(#paint0_linear_2_69)"/>
<path d="M674.346 767.869H682.202C682.202 763.531 678.684 760.014 674.346 760.014V767.869ZM674.346 920V927.856C678.684 927.856 682.202 924.339 682.202 920H674.346ZM121.221 920H113.365C113.365 924.339 116.882 927.856 121.221 927.856V920ZM121.221 767.869V760.014C116.882 760.014 113.365 763.531 113.365 767.869H121.221ZM661.562 50.6818H669.418C669.418 46.3433 665.9 42.8262 661.562 42.8262V50.6818ZM661.562 203.665V211.52C665.9 211.52 669.418 208.003 669.418 203.665H661.562ZM140.823 203.665H132.967C132.967 208.003 136.485 211.52 140.823 211.52V203.665ZM140.823 50.6818V42.8262C136.485 42.8262 132.967 46.3433 132.967 50.6818H140.823ZM510.71 480.653H518.565C518.565 478.993 518.039 477.375 517.062 476.032L510.71 480.653ZM510.71 489.602L517.064 494.221C518.04 492.878 518.565 491.262 518.565 489.602H510.71ZM197.925 920V927.856C200.44 927.856 202.802 926.652 204.28 924.618L197.925 920ZM50.9084 920H43.0527C43.0527 924.339 46.5698 927.856 50.9084 927.856V920ZM50.9084 830.511L44.6666 825.741C43.6198 827.111 43.0527 828.787 43.0527 830.511H50.9084ZM314.687 485.341L320.929 490.111C323.083 487.292 323.08 483.38 320.923 480.564L314.687 485.341ZM50.9084 141.023H43.0527C43.0527 142.75 43.622 144.429 44.6723 145.8L50.9084 141.023ZM50.9084 50.6818V42.8262C46.5698 42.8262 43.0527 46.3433 43.0527 50.6818H50.9084ZM197.925 50.6818L204.278 46.0606C202.8 44.0284 200.438 42.8262 197.925 42.8262V50.6818ZM666.49 767.869V920H682.202V767.869H666.49ZM674.346 912.144H121.221V927.856H674.346V912.144ZM129.077 920V767.869H113.365V920H129.077ZM121.221 775.725H674.346V760.014H121.221V775.725ZM653.706 50.6818V203.665H669.418V50.6818H653.706ZM661.562 195.809H140.823V211.52H661.562V195.809ZM148.679 203.665V50.6818H132.967V203.665H148.679ZM140.823 58.5375H661.562V42.8262H140.823V58.5375ZM502.854 480.653V489.602H518.565V480.653H502.854ZM504.355 484.984L191.571 915.382L204.28 924.618L517.064 494.221L504.355 484.984ZM197.925 912.144H50.9084V927.856H197.925V912.144ZM58.7641 920V830.511H43.0527V920H58.7641ZM57.1501 835.281L320.929 490.111L308.445 480.571L44.6666 825.741L57.1501 835.281ZM320.923 480.564L57.1444 136.245L44.6723 145.8L308.451 490.118L320.923 480.564ZM58.7641 141.023V50.6818H43.0527V141.023H58.7641ZM50.9084 58.5375H197.925V42.8262H50.9084V58.5375ZM191.573 55.3031L504.357 485.275L517.062 476.032L204.278 46.0606L191.573 55.3031Z" fill="url(#paint1_linear_2_69)"/>
</g>
<defs>
<filter id="filter0_d_2_69" x="0.908203" y="0.681824" width="723.438" height="969.318" filterUnits="userSpaceOnUse" color-interpolation-filters="sRGB">
<feFlood flood-opacity="0" result="BackgroundImageFix"/>
<feColorMatrix in="SourceAlpha" type="matrix" values="0 0 0 0 0 0 0 0 0 0 0 0 0 0 0 0 0 0 127 0" result="hardAlpha"/>
<feOffset/>
<feGaussianBlur stdDeviation="25"/>
<feComposite in2="hardAlpha" operator="out"/>
<feColorMatrix type="matrix" values="0 0 0 0 0 0 0 0 0 0 0 0 0 0 0 0 0 0 0.15 0"/>
<feBlend mode="normal" in2="BackgroundImageFix" result="effect1_dropShadow_2_69"/>
<feBlend mode="normal" in="SourceGraphic" in2="effect1_dropShadow_2_69" result="shape"/>
</filter>
<linearGradient id="paint0_linear_2_69" x1="363" y1="-16" x2="363" y2="984" gradientUnits="userSpaceOnUse">
<stop stop-color="#3D66F5"/>
<stop offset="1" stop-color="#7232FA"/>
</linearGradient>
<linearGradient id="paint1_linear_2_69" x1="363" y1="-16" x2="363" y2="984" gradientUnits="userSpaceOnUse">
<stop stop-color="#3D66F5"/>
<stop offset="1" stop-color="#7232FA"/>
</linearGradient>
</defs>
</svg>
